HIERARCHY
ROOT Hips
{
	OFFSET -0.001795 -0.223333 0.028219
	CHANNELS 6 Xposition Yposition Zposition Zrotation Yrotation Xrotation 
	JOINT LeftUpLeg
	{
		OFFSET 0.069520 -0.091406 -0.006815
		CHANNELS 3 Zrotation Yrotation Xrotation
		JOINT LeftLeg
		{
			OFFSET 0.034277 -0.375199 -0.004496
			CHANNELS 3 Zrotation Yrotation Xrotation
			JOINT LeftFoot
			{
				OFFSET -0.013596 -0.397961 -0.043693
				CHANNELS 3 Zrotation Yrotation Xrotation
				JOINT LeftToe
				{
					OFFSET 0.026358 -0.055791 0.119288
					CHANNELS 3 Zrotation Yrotation Xrotation
					End Site
					{
						OFFSET 0.000000 0.000000 0.000000
					}
				}
			}
		}
	}
	JOINT RightUpLeg
	{
		OFFSET -0.067670 -0.090522 -0.004320
		CHANNELS 3 Zrotation Yrotation Xrotation
		JOINT RightLeg
		{
			OFFSET -0.038290 -0.382569 -0.008850
			CHANNELS 3 Zrotation Yrotation Xrotation
			JOINT RightFoot
			{
				OFFSET 0.015774 -0.398415 -0.042312
				CHANNELS 3 Zrotation Yrotation Xrotation
				JOINT RightToe
				{
					OFFSET -0.025372 -0.048144 0.123348
					CHANNELS 3 Zrotation Yrotation Xrotation
					End Site
					{
						OFFSET 0.000000 0.000000 0.000000
					}
				}
			}
		}
	}
	JOINT Spine
	{
		OFFSET -0.002533 0.108963 -0.026696
		CHANNELS 3 Zrotation Yrotation Xrotation
		JOINT Spine1
		{
			OFFSET 0.005487 0.135180 0.001092
			CHANNELS 3 Zrotation Yrotation Xrotation
			JOINT Spine2
			{
				OFFSET 0.001457 0.052922 0.025425
				CHANNELS 3 Zrotation Yrotation Xrotation
				JOINT Neck
				{
					OFFSET -0.002778 0.213870 -0.042857
					CHANNELS 3 Zrotation Yrotation Xrotation
					JOINT Head
					{
						OFFSET 0.005152 0.064970 0.051349
						CHANNELS 3 Zrotation Yrotation Xrotation
						End Site
						{
							OFFSET 0.000000 0.000000 0.000000
						}
					}
				}
				JOINT LeftShoulder
				{
					OFFSET 0.078845 0.121749 -0.034090
					CHANNELS 3 Zrotation Yrotation Xrotation
					JOINT LeftArm
					{
						OFFSET 0.090977 0.030469 -0.008868
						CHANNELS 3 Zrotation Yrotation Xrotation
						JOINT LeftForeArm
						{
							OFFSET 0.259612 -0.012772 -0.027456
							CHANNELS 3 Zrotation Yrotation Xrotation
							JOINT LeftHand
							{
								OFFSET 0.249234 0.008986 -0.001171
								CHANNELS 3 Zrotation Yrotation Xrotation
								End Site
								{
									OFFSET 0.000000 0.000000 0.000000
								}
							}
						}
					}
				}
				JOINT RightShoulder
				{
					OFFSET -0.081759 0.118833 -0.038615
					CHANNELS 3 Zrotation Yrotation Xrotation
					JOINT RightArm
					{
						OFFSET -0.096012 0.032551 -0.009143
						CHANNELS 3 Zrotation Yrotation Xrotation
						JOINT RightForeArm
						{
							OFFSET -0.253742 -0.013329 -0.021401
							CHANNELS 3 Zrotation Yrotation Xrotation
							JOINT RightHand
							{
								OFFSET -0.255298 0.007772 -0.005559
								CHANNELS 3 Zrotation Yrotation Xrotation
								End Site
								{
									OFFSET 0.000000 0.000000 0.000000
								}
							}
						}
					}
				}
			}
		}
	}
}
MOTION
Frames: 13
Frame Time: 0.050000
0.000000 0.940407 0.000000 -2.098973 1.659807 8.066237 6.808025 -0.383511 -4.356216 2.589206 0.171265 -7.835625 1.814936 7.582236 11.450805 0.000000 0.000000 0.000000 -4.232204 0.622905 -7.086928 -0.858437 -0.009183 -2.122234 -2.449310 -8.907633 9.787272 0.000000 0.000000 0.000000 2.383338 0.275909 -6.024098 -0.388445 0.280698 -3.683535 -0.412449 0.495475 2.823215 1.431098 -0.066465 -10.500796 0.000000 0.000000 0.000000 -16.454582 3.639990 -3.750064 -56.090867 -5.143906 -4.041679 -9.006670 -16.806776 1.888697 0.000000 0.000000 0.000000 14.395952 -4.719408 -3.424504 60.468602 4.409176 -3.323157 5.473286 15.671611 1.178287 0.000000 0.000000 0.000000 
0.000120 0.939657 0.000155 -2.395407 0.197512 8.580485 6.257767 -0.357376 -3.921452 4.109239 0.183112 -8.792666 2.399297 8.371587 11.431993 0.000000 0.000000 0.000000 -4.116513 0.700866 -7.987662 -0.783883 0.017977 -1.341740 -1.271184 -6.681080 9.624643 0.000000 0.000000 0.000000 2.937504 0.295091 -6.111636 -1.339032 0.679987 -4.111331 0.570772 0.977358 2.355838 0.358104 0.602745 -10.555073 0.000000 0.000000 0.000000 -17.925031 5.297025 -4.740231 -55.350348 -4.292186 -4.316045 -9.665635 -17.474141 2.079956 0.000000 0.000000 0.000000 13.581782 -5.317514 -3.707303 60.833191 3.494160 -3.763234 6.323122 16.506419 1.337020 0.000000 0.000000 0.000000 
0.000190 0.939522 0.000044 -2.176246 0.802213 8.315086 6.145015 -0.361049 -3.928317 4.249099 0.112622 -7.848876 1.747973 7.189502 10.740941 0.000000 0.000000 0.000000 -4.217285 0.685627 -7.929120 -0.835234 0.043386 -0.926384 -2.044293 -7.981875 8.926845 0.000000 0.000000 0.000000 2.425920 0.247104 -5.484204 -0.612844 0.408373 -5.500474 -0.049968 0.317643 2.704419 0.296181 0.610620 -10.284048 0.000000 0.000000 0.000000 -17.127780 4.993490 -4.404983 -56.020744 -3.762672 -4.664688 -8.982132 -17.135471 1.944939 0.000000 0.000000 0.000000 14.724944 -4.417182 -3.450794 59.475197 3.282657 -3.843232 6.125015 16.300260 1.291880 0.000000 0.000000 0.000000 
0.000231 0.939293 -0.000033 -2.526982 0.300917 8.607148 6.317026 -0.372169 -4.280287 4.693470 0.095987 -7.848620 1.954252 7.527824 10.932271 0.000000 0.000000 0.000000 -4.198691 0.757829 -8.926200 -0.369878 0.026368 -0.272265 -1.924956 -7.880718 9.247048 0.000000 0.000000 0.000000 2.541717 0.243263 -5.396350 -1.212224 0.648852 -5.602205 1.158164 -0.565358 1.865274 -0.500736 0.957401 -9.017021 0.000000 0.000000 0.000000 -16.962612 6.242232 -4.747052 -56.837115 -3.428613 -4.801879 -8.396578 -16.928126 1.874765 0.000000 0.000000 0.000000 13.453988 -4.147096 -3.395268 59.330334 3.036642 -3.907691 7.577479 16.723255 1.465292 0.000000 0.000000 0.000000 
0.000146 0.939622 -0.000160 -2.423832 0.733747 8.572938 6.109978 -0.384381 -4.466618 4.982277 0.061852 -7.526245 1.373207 6.619805 10.958734 0.000000 0.000000 0.000000 -4.121547 0.751989 -8.869303 -0.664684 0.048893 -0.441107 -2.089671 -8.202462 9.390420 0.000000 0.000000 0.000000 2.241193 0.240527 -5.427065 -0.737249 0.459939 -5.576542 0.944871 -0.937873 1.855909 -0.764725 1.149011 -9.349437 0.000000 0.000000 0.000000 -16.799478 6.119591 -4.643506 -56.909051 -3.470468 -4.788854 -8.562501 -16.635997 1.866557 0.000000 0.000000 0.000000 13.038964 -4.332941 -3.428826 59.395021 3.244264 -3.815973 8.154625 16.674382 1.531706 0.000000 0.000000 0.000000 
0.000099 0.940113 -0.000263 -2.475381 0.539053 8.833799 5.951766 -0.392942 -4.658340 5.432838 0.036247 -7.429143 1.443216 6.706178 10.926938 0.000000 0.000000 0.000000 -4.153516 0.771486 -9.125524 -0.696626 0.047543 -0.532983 -1.850410 -7.863280 9.842308 0.000000 0.000000 0.000000 2.100083 0.247286 -5.569932 -0.759735 0.473179 -5.917891 1.279107 -1.013922 2.021152 -0.556629 0.980377 -9.127934 0.000000 0.000000 0.000000 -16.687030 6.535974 -4.784131 -57.068522 -3.225224 -4.927863 -8.907503 -16.692631 1.933432 0.000000 0.000000 0.000000 12.466907 -4.214762 -3.319808 59.503900 3.344959 -3.801486 8.452218 16.475236 1.541028 0.000000 0.000000 0.000000 
0.000043 0.940439 -0.000364 -2.376577 0.694191 8.885990 5.738349 -0.402185 -4.803765 5.570273 0.007826 -7.143804 1.223058 6.349192 10.893255 0.000000 0.000000 0.000000 -4.004740 0.783773 -9.252997 -1.025808 0.086127 -0.410550 -1.643285 -7.384321 9.663812 0.000000 0.000000 0.000000 1.922604 0.245970 -5.596744 -0.690337 0.445796 -5.851651 1.184631 -1.196914 2.115555 -0.277315 0.810721 -9.496296 0.000000 0.000000 0.000000 -16.611333 6.577703 -4.778135 -56.666723 -3.011031 -4.999814 -9.695926 -17.006649 2.090574 0.000000 0.000000 0.000000 12.321001 -3.962038 -3.188800 59.522750 3.385758 -3.795755 8.337289 16.303115 1.507938 0.000000 0.000000 0.000000 
0.000063 0.940738 -0.000475 -2.370030 0.715680 9.035035 5.509277 -0.415002 -5.033722 5.827328 -0.015790 -6.988096 1.092807 6.093736 10.749821 0.000000 0.000000 0.000000 -3.962661 0.793009 -9.355646 -1.127550 0.100054 -0.333363 -1.533600 -7.143045 9.594046 0.000000 0.000000 0.000000 1.800960 0.253355 -5.764105 -0.677604 0.440025 -5.814305 1.064466 -0.734125 2.101837 0.087798 0.579038 -9.173585 0.000000 0.000000 0.000000 -16.303375 6.323365 -4.692916 -56.362083 -2.945331 -5.003483 -10.220841 -17.367229 2.199129 0.000000 0.000000 0.000000 12.429675 -3.974095 -3.137400 59.363941 3.405996 -3.748140 8.474614 15.934049 1.499573 0.000000 0.000000 0.000000 
0.000108 0.940937 -0.000571 -2.415218 0.791116 8.997352 5.417747 -0.413907 -4.985946 5.939345 -0.021808 -6.969577 0.979064 5.830585 10.476787 0.000000 0.000000 0.000000 -3.850081 0.784743 -9.182543 -1.177896 0.093599 -0.568661 -1.317282 -6.673694 9.504543 0.000000 0.000000 0.000000 1.747047 0.253957 -5.786762 -0.695585 0.450264 -5.904856 1.067455 -0.472353 2.270828 0.290593 0.453505 -9.055007 0.000000 0.000000 0.000000 -15.989639 6.116674 -4.589091 -56.387431 -3.073185 -4.965167 -10.481947 -17.513433 2.249225 0.000000 0.000000 0.000000 12.640780 -3.809428 -3.042944 59.002809 3.384656 -3.738090 8.288408 15.488639 1.439310 0.000000 0.000000 0.000000 
0.000163 0.941049 -0.000684 -2.473067 0.614163 8.927480 5.424415 -0.405854 -4.871829 5.908182 -0.018174 -7.011945 1.002233 5.848031 10.467381 0.000000 0.000000 0.000000 -3.918226 0.773439 -9.031112 -0.972055 0.068037 -0.671702 -1.193741 -6.430775 9.460466 0.000000 0.000000 0.000000 1.738252 0.259193 -5.855501 -0.738862 0.466058 -5.926907 1.037061 0.082876 2.540478 0.446578 0.370764 -8.970044 0.000000 0.000000 0.000000 -15.690785 5.811812 -4.465971 -56.148593 -3.270050 -4.881369 -11.171328 -17.593568 2.351232 0.000000 0.000000 0.000000 12.956345 -3.688092 -2.953777 58.395221 3.786564 -3.512548 8.375760 14.849270 1.393378 0.000000 0.000000 0.000000 
0.000225 0.941099 -0.000808 -2.513020 0.354999 8.844315 5.438006 -0.396722 -4.747377 5.846026 -0.013651 -7.047983 1.125692 5.977510 10.296693 0.000000 0.000000 0.000000 -3.992818 0.766641 -8.941319 -0.769669 0.044786 -0.740837 -1.141278 -6.344402 9.427069 0.000000 0.000000 0.000000 1.723696 0.266221 -5.947010 -0.902557 0.525407 -5.721919 1.131282 0.405223 2.568093 0.388963 0.415070 -8.909894 0.000000 0.000000 0.000000 -15.486074 5.711732 -4.409270 -55.992171 -3.335820 -4.841341 -11.356107 -17.884205 2.414925 0.000000 0.000000 0.000000 12.998071 -3.108021 -2.659337 58.199585 4.154646 -3.321598 8.346992 14.663424 1.373670 0.000000 0.000000 0.000000 
0.000281 0.940963 -0.000950 -2.577437 0.136302 8.871510 5.604333 -0.388466 -4.622353 5.602816 0.024237 -7.389912 1.216788 6.192995 10.598403 0.000000 0.000000 0.000000 -3.987725 0.770808 -8.962254 -0.691847 0.039850 -0.677833 -1.042961 -6.118362 9.254162 0.000000 0.000000 0.000000 1.706849 0.276372 -6.107699 -0.922278 0.526340 -5.478968 1.212603 0.639565 2.485627 0.491422 0.371513 -9.154545 0.000000 0.000000 0.000000 -15.474725 5.584546 -4.363812 -55.416534 -3.319484 -4.786834 -11.933742 -18.037585 2.522591 0.000000 0.000000 0.000000 13.140978 -2.784353 -2.510006 57.844363 4.481322 -3.133001 8.410270 15.023995 1.421782 0.000000 0.000000 0.000000 
0.000382 0.940923 -0.001177 -2.728342 -0.065378 8.867362 5.687968 -0.381541 -4.522697 5.594502 0.029221 -7.455809 1.313939 6.313847 10.531892 0.000000 0.000000 0.000000 -3.823237 0.783784 -9.047352 -0.594780 0.031695 -0.644841 -1.074856 -6.237437 9.351397 0.000000 0.000000 0.000000 1.748326 0.285701 -6.234567 -0.871441 0.499500 -5.286462 1.258601 0.818990 2.322469 0.561764 0.315115 -8.984856 0.000000 0.000000 0.000000 -15.492424 5.367129 -4.273549 -54.649025 -3.172053 -4.765870 -12.230953 -18.345471 2.610820 0.000000 0.000000 0.000000 13.348920 -2.426577 -2.358526 57.302306 4.774132 -2.949320 8.517022 15.816128 1.522444 0.000000 0.000000 0.000000 
